<svg version="1.1" xmlns="http://www.w3.org/2000/svg" xmlns:xlink="http://www.w3.org/1999/xlink" width="258.38742" height="311.32282" viewBox="0,0,258.38742,311.32282"><g transform="translate(-110.92955,-27.74485)"><g data-paper-data="{&quot;isPaintingLayer&quot;:true}" fill-rule="nonzero" stroke-linecap="butt" stroke-linejoin="miter" stroke-miterlimit="10" stroke-dasharray="" stroke-dashoffset="0" style="mix-blend-mode: normal"><path d="M136.73448,332.25484c-4.29567,-0.90442 -8.30869,-3.22171 -12.03919,-6.95226c-3.7305,-3.7305 -6.04778,-7.74341 -6.95226,-12.03919l225.18345,-225.18345c4.74785,1.13045 8.81748,3.44785 12.20873,6.95226c3.39136,3.50435 5.76525,7.51754 7.12174,12.03919zM117.74315,246.79365v-37.98278l120.73088,-120.73088h37.98278zM117.74315,142.34108v-27.13048c0,-7.46088 2.65642,-13.84785 7.96955,-19.16093c5.31313,-5.31313 11.70005,-7.96955 19.16093,-7.96955h27.13048zM307.65692,332.25484l54.26113,-54.26113v27.13048c0,7.46088 -2.65642,13.84785 -7.96955,19.16093c-5.31313,5.31313 -11.70005,7.96955 -19.16093,7.96955zM203.20434,332.25484l158.7136,-158.7136v37.98278l-120.73088,120.73088z" fill="#666666" stroke="#666666" stroke-width="12.5"/><path d="M147.30285,321.72408v-293.97898h185.39447v293.97898z" fill="none" stroke="#191919" stroke-width="0.0005"/></g></g></svg>