<svg version="1.1" xmlns="http://www.w3.org/2000/svg" xmlns:xlink="http://www.w3.org/1999/xlink" width="164.8" height="190.47042" viewBox="0,0,164.8,190.47042"><g transform="translate(-165.2,-78.27958)"><g data-paper-data="{&quot;isPaintingLayer&quot;:true}" fill-rule="nonzero" stroke-linejoin="miter" stroke-miterlimit="10" stroke-dasharray="" stroke-dashoffset="0" style="mix-blend-mode: normal"><path d="M240.25,113.1v18.5" fill="none" stroke="#666666" stroke-width="15" stroke-linecap="round"/><path d="M240.25,248.2v-18.5" fill="none" stroke="#666666" stroke-width="15" stroke-linecap="round"/><path d="M289.3,180.75h18.5" fill="none" stroke="#666666" stroke-width="15" stroke-linecap="round"/><path d="M172.7,180.75h18.5" fill="none" stroke="#666666" stroke-width="15" stroke-linecap="round"/><path d="M288.01507,132.98494l-13.08148,13.08147" fill="none" stroke="#666666" stroke-width="15" stroke-linecap="round"/><path d="M205.56641,215.43359l-13.08147,13.08147" fill="none" stroke="#666666" stroke-width="15" stroke-linecap="round"/><path d="M274.93359,215.4336l13.08148,13.08147" fill="none" stroke="#666666" stroke-width="15" stroke-linecap="round"/><path d="M192.48494,132.98494l13.08147,13.08147" fill="none" stroke="#666666" stroke-width="15" stroke-linecap="round"/><path d="M216.125,180.75c0,-13.32387 10.80113,-24.125 24.125,-24.125c13.32387,0 24.125,10.80113 24.125,24.125c0,13.32387 -10.80113,24.125 -24.125,24.125c-13.32387,0 -24.125,-10.80113 -24.125,-24.125z" fill="#666666" stroke="#666666" stroke-width="8" stroke-linecap="butt"/><path d="M325,266.25c0,-1.38071 1.11929,-2.5 2.5,-2.5c1.38071,0 2.5,1.11929 2.5,2.5c0,1.38071 -1.11929,2.5 -2.5,2.5c-1.38071,0 -2.5,-1.11929 -2.5,-2.5z" fill="none" stroke="none" stroke-width="15" stroke-linecap="butt"/><path d="M183.03563,204.74906v-126.46923h113.92876v126.46923z" fill="none" stroke-opacity="0.00806" stroke="#666666" stroke-width="0.0005" stroke-linecap="butt"/></g></g></svg>